<svg width="17" height="20" viewBox="0 0 17 20" fill="none" xmlns="http://www.w3.org/2000/svg">
<g id="Frame" clip-path="url(#clip0_405_5621)">
<path id="Vector" d="M7.66917 0.150528C3.69925 0.33098 0.451128 3.39865 0 7.27835C0 8.09038 0 8.81218 0.180451 9.53399C0.180451 9.53399 0.180451 9.62421 0.270677 9.80466C0.360902 10.346 0.541353 10.8874 0.81203 11.3385C1.62406 13.2332 3.42857 16.3911 7.57895 19.8197C7.84962 20.0002 8.21053 20.0002 8.4812 19.8197C12.6316 16.3911 14.4361 13.2332 15.2481 11.3385C15.5188 10.7971 15.6992 10.346 15.7895 9.80466C15.7895 9.62421 15.8797 9.53399 15.8797 9.53399C15.9699 9.08286 16.0602 8.54151 16.0602 8.00015C15.8797 3.5791 12.1805 -0.0299227 7.66917 0.150528ZM7.93985 11.9701C5.77444 11.9701 4.06015 10.2558 4.06015 8.09038C4.06015 5.92496 5.77444 4.21068 7.93985 4.21068C10.1053 4.21068 11.7293 6.01519 11.7293 8.1806C11.7293 10.346 10.015 11.9701 7.93985 11.9701Z" fill="white"/>
</g>
<defs>
<clipPath id="clip0_405_5621">
<rect width="16.1905" height="20" fill="white"/>
</clipPath>
</defs>
</svg>
